<?xml version="1.0" standalone="no"?>
<!DOCTYPE svg PUBLIC "-//W3C//DTD SVG 20010904//EN"
 "http://www.w3.org/TR/2001/REC-SVG-20010904/DTD/svg10.dtd">
<svg version="1.0" xmlns="http://www.w3.org/2000/svg"
 width="700.000000pt" height="700.000000pt" viewBox="0 0 700.000000 700.000000"
 preserveAspectRatio="xMidYMid meet">
<metadata>
Created by potrace 1.11, written by Peter Selinger 2001-2013
</metadata>
<g transform="translate(0.000000,700.000000) scale(0.100000,-0.100000)"
fill="#000000" stroke="none">
<path d="M3345 6990 c-395 -61 -711 -287 -885 -631 -47 -92 -96 -237 -105
-310 -4 -30 -10 -58 -13 -64 -4 -5 -8 -658 -9 -1450 -1 -792 -2 -1450 -2
-1462 -1 -12 -24 -44 -57 -75 -31 -29 -89 -93 -129 -143 -209 -259 -333 -544
-380 -879 -13 -90 -13 -400 -1 -461 3 -16 13 -68 22 -115 36 -189 136 -433
249 -607 31 -47 62 -91 68 -98 7 -7 28 -32 47 -56 50 -63 175 -188 246 -246
250 -204 589 -347 902 -381 88 -9 341 -9 417 1 382 50 724 214 996 479 197
190 328 388 425 640 37 95 81 258 89 331 3 25 8 56 12 68 3 13 7 98 8 189 3
183 -13 328 -50 463 -8 28 -17 63 -20 77 -4 14 -10 34 -15 45 -4 11 -16 40
-25 65 -83 223 -204 413 -383 601 l-85 90 -2 1452 c-1 799 -5 1470 -9 1492
-16 94 -60 235 -101 322 -161 340 -459 573 -835 653 -67 14 -306 21 -375 10z
m265 -585 c198 -41 374 -191 439 -375 35 -98 36 -165 35 -1710 0 -1437 1
-1526 17 -1540 208 -185 264 -241 334 -335 117 -157 195 -346 221 -535 10 -70
11 -240 2 -295 -4 -27 -10 -66 -13 -86 -7 -43 -39 -158 -57 -202 -166 -406
-530 -686 -953 -734 -103 -12 -237 -8 -355 11 -98 15 -261 77 -365 138 -650
381 -777 1259 -263 1808 25 27 223 209 258 238 3 2 5 704 6 1560 1 1725 -3
1612 66 1750 61 121 159 213 288 269 108 47 233 61 340 38z"/>
<path d="M3210 3624 l0 -1042 -84 -41 c-479 -234 -646 -821 -360 -1263 274
-425 835 -530 1247 -234 66 47 94 74 171 160 42 47 104 158 134 239 41 110 55
192 54 322 -2 232 -86 429 -257 601 -91 91 -187 157 -277 191 l-48 17 0 1047
0 1046 -290 0 -290 -1 0 -1042z"/>
</g>
</svg>
